# xmcd CD database file
#
# Track frame offsets:
#	150
#	14757
#	27117
#	41220
#	53467
#	61055
#	73812
#	84947
#	100902
#	114207
#	125930
#	134777
#
# Disc length: 1982 seconds
#
# Revision: 0
# Processed by: cddbd v1.5.2PL0 Copyright (c) Steve Scherf et al.
# Submitted via: CDex 1.70beta2
#
DISCID=a707bc0c
DTITLE=Lojzíci - Vzpomínej
DYEAR=1900
DGENRE=Country
TTITLE0=Zvony nad ránem
TTITLE1=Smíš se hřát svou slávou
TTITLE2=Vzpomínej
TTITLE3=Strom
TTITLE4=Climb Up The Mountains
TTITLE5=Pod lípou
TTITLE6=Život
TTITLE7=Jméno Tvé
TTITLE8=Poslední pastva
TTITLE9=Another way
TTITLE10=Píšu vám
TTITLE11=Will The Circle Be Unbrocken
EXTD=
EXTT0=
EXTT1=
EXTT2=
EXTT3=
EXTT4=
EXTT5=
EXTT6=
EXTT7=
EXTT8=
EXTT9=
EXTT10=
EXTT11=
PLAYORDER=
